<svg width="202" height="27" viewBox="0 0 202 27" fill="none" xmlns="http://www.w3.org/2000/svg">
<g id="Group 13">
<path id="DESIGNO" fill-rule="evenodd" clip-rule="evenodd" d="M92.972 21.3841C94.4119 21.3841 95.6719 21.1461 96.7519 20.6701C97.832 20.1941 98.674 19.5041 99.278 18.6001C99.882 17.6961 100.184 16.6121 100.184 15.3481C100.184 14.4841 100.042 13.7401 99.7579 13.1161C99.4739 12.4921 99.0639 11.9461 98.528 11.4781C97.992 11.0101 97.3479 10.5841 96.5959 10.2001C95.8439 9.81609 95.0039 9.42809 94.076 9.03609C93.644 8.86009 93.2479 8.69409 92.888 8.53809C92.528 8.38209 92.2199 8.21809 91.964 8.04609C91.708 7.87409 91.5099 7.67009 91.3699 7.43409C91.2299 7.19809 91.16 6.91209 91.16 6.57609C91.16 6.16809 91.2659 5.79809 91.478 5.46609C91.6899 5.13409 91.9939 4.86809 92.3899 4.66809C92.7859 4.46809 93.2679 4.36809 93.8359 4.36809C94.34 4.36809 94.8379 4.44009 95.3299 4.58409C95.8219 4.72809 96.2859 4.91809 96.722 5.15409C97.158 5.39009 97.548 5.65609 97.8919 5.95209L99.5119 2.90409C99.0799 2.53609 98.5519 2.19609 97.9279 1.88409C97.304 1.57209 96.632 1.32009 95.9119 1.12809C95.1919 0.936088 94.472 0.840088 93.7519 0.840088C92.792 0.840088 91.922 1.00009 91.1419 1.32009C90.3619 1.64009 89.6899 2.07209 89.1259 2.61609C88.562 3.16009 88.1279 3.78009 87.8239 4.47609C87.52 5.17209 87.368 5.90009 87.368 6.66009C87.368 7.30009 87.478 7.87809 87.6979 8.39409C87.9179 8.91009 88.216 9.37209 88.5919 9.78009C88.9679 10.1881 89.3979 10.5461 89.882 10.8541C90.3659 11.1621 90.8759 11.4361 91.4119 11.6761C92.132 11.9881 92.7739 12.2741 93.3379 12.5341C93.902 12.7941 94.3779 13.0581 94.7659 13.3261C95.1539 13.5941 95.4479 13.8941 95.6479 14.2261C95.8479 14.5581 95.9479 14.9601 95.9479 15.4321C95.9479 15.9521 95.8239 16.3861 95.576 16.7341C95.3279 17.0821 94.9899 17.3441 94.562 17.5201C94.1339 17.6961 93.6399 17.7841 93.0799 17.7841C92.4799 17.7841 91.9139 17.6981 91.382 17.5261C90.8499 17.3541 90.3559 17.1381 89.8999 16.8781C89.444 16.6181 89.0319 16.3441 88.6639 16.0561C88.2959 15.7681 87.9799 15.5081 87.716 15.2761L85.7239 18.4921C85.9799 18.7401 86.3279 19.0281 86.7679 19.3561C87.208 19.6841 87.7339 20.0021 88.346 20.3101C88.958 20.6181 89.652 20.8741 90.4279 21.0781C91.2039 21.2821 92.0519 21.3841 92.972 21.3841ZM48.136 21.0001C49.544 21.0001 50.854 20.7501 52.066 20.2501C53.278 19.7501 54.338 19.0501 55.246 18.1501C56.154 17.2501 56.86 16.2021 57.364 15.0061C57.868 13.8101 58.12 12.5121 58.12 11.1121C58.12 9.72009 57.866 8.42409 57.358 7.22409C56.85 6.02409 56.142 4.97209 55.234 4.06809C54.326 3.16409 53.268 2.46009 52.06 1.95609C50.852 1.45209 49.544 1.20009 48.136 1.20009H42.7V21.0001H48.136ZM47.704 17.5201H46.588V4.68009H47.704C48.6 4.68009 49.428 4.84009 50.188 5.16009C50.948 5.48009 51.608 5.93009 52.168 6.51009C52.728 7.09009 53.164 7.77009 53.476 8.55009C53.788 9.33009 53.944 10.1801 53.944 11.1001C53.944 12.0281 53.788 12.8821 53.476 13.6621C53.164 14.4421 52.728 15.1201 52.168 15.6961C51.608 16.2721 50.948 16.7201 50.188 17.0401C49.428 17.3601 48.6 17.5201 47.704 17.5201ZM78.06 17.5921V21.0001H67.044V1.20009H78.06V4.60809H70.932V9.37209H77.7719V12.7801H70.932V17.5921H78.06ZM109.168 1.20009H113.056V21.0001H109.168V1.20009ZM131.748 21.3841C132.916 21.3841 134.044 21.1861 135.132 20.7901C136.22 20.3941 137.196 19.8341 138.06 19.1101C138.924 18.3861 139.606 17.5261 140.106 16.5301C140.606 15.5341 140.856 14.4321 140.856 13.2241V10.2241H131.7V13.2361H136.896V13.5361C136.896 14.1521 136.76 14.7201 136.488 15.2401C136.216 15.7601 135.848 16.2121 135.384 16.5961C134.92 16.9801 134.39 17.2781 133.794 17.4901C133.198 17.7021 132.58 17.8081 131.94 17.8081C131.14 17.8081 130.394 17.6441 129.702 17.3161C129.01 16.9881 128.406 16.5201 127.89 15.9121C127.374 15.3041 126.972 14.5801 126.684 13.7401C126.396 12.9001 126.252 11.9641 126.252 10.9321C126.252 9.98809 126.38 9.11409 126.636 8.31009C126.892 7.50609 127.268 6.80409 127.764 6.20409C128.26 5.60409 128.87 5.13809 129.594 4.80609C130.318 4.47409 131.152 4.30809 132.096 4.30809C133.056 4.30809 134.03 4.48609 135.018 4.84209C136.006 5.19809 136.848 5.70009 137.544 6.34809L139.368 3.33609C138.72 2.80009 137.992 2.34609 137.184 1.97409C136.376 1.60209 135.534 1.32009 134.658 1.12809C133.782 0.936088 132.912 0.840088 132.048 0.840088C130.52 0.840088 129.14 1.11009 127.908 1.65009C126.676 2.19009 125.624 2.93409 124.752 3.88209C123.88 4.83009 123.212 5.92209 122.748 7.15809C122.284 8.39409 122.052 9.70809 122.052 11.1001C122.052 12.5561 122.3 13.9081 122.796 15.1561C123.292 16.4041 123.98 17.4941 124.86 18.4261C125.74 19.3581 126.768 20.0841 127.944 20.6041C129.12 21.1241 130.388 21.3841 131.748 21.3841ZM153.668 7.68009V21.0001H149.78V1.20009H153.668L162.2 14.5201V1.20009H166.088V21.0001H162.2L153.668 7.68009ZM185.032 21.3841C186.416 21.3841 187.712 21.1201 188.92 20.5921C190.128 20.0641 191.188 19.3301 192.1 18.3901C193.012 17.4501 193.726 16.3581 194.242 15.1141C194.758 13.8701 195.016 12.5361 195.016 11.1121C195.016 9.68809 194.758 8.35409 194.242 7.11009C193.726 5.86609 193.012 4.77409 192.1 3.83409C191.188 2.89409 190.128 2.16009 188.92 1.63209C187.712 1.10409 186.416 0.840088 185.032 0.840088C183.648 0.840088 182.352 1.10409 181.144 1.63209C179.936 2.16009 178.876 2.89409 177.964 3.83409C177.052 4.77409 176.338 5.86609 175.822 7.11009C175.306 8.35409 175.048 9.68809 175.048 11.1121C175.048 12.5361 175.306 13.8701 175.822 15.1141C176.338 16.3581 177.052 17.4501 177.964 18.3901C178.876 19.3301 179.936 20.0641 181.144 20.5921C182.352 21.1201 183.648 21.3841 185.032 21.3841ZM182.71 17.1601C183.418 17.4801 184.188 17.6401 185.02 17.6401C185.868 17.6401 186.644 17.4801 187.348 17.1601C188.052 16.8401 188.664 16.3881 189.184 15.8041C189.704 15.2201 190.108 14.5301 190.396 13.7341C190.684 12.9381 190.828 12.0641 190.828 11.1121C190.828 10.1601 190.684 9.28609 190.396 8.49009C190.108 7.69409 189.704 7.00409 189.184 6.42009C188.664 5.83609 188.052 5.38409 187.348 5.06409C186.644 4.74409 185.868 4.58409 185.02 4.58409C184.188 4.58409 183.418 4.74409 182.71 5.06409C182.002 5.38409 181.388 5.83609 180.868 6.42009C180.348 7.00409 179.946 7.69409 179.662 8.49009C179.378 9.28609 179.236 10.1601 179.236 11.1121C179.236 12.0641 179.378 12.9381 179.662 13.7341C179.946 14.5301 180.348 15.2201 180.868 15.8041C181.388 16.3881 182.002 16.8401 182.71 17.1601Z" fill="#333136"/>
<circle id="Oval" r="12" transform="matrix(0 -1 -1 0 12 12)" fill="url(#paint0_angular_0_7453)"/>
</g>
<defs>
<radialGradient id="paint0_angular_0_7453" cx="0" cy="0" r="1" gradientUnits="userSpaceOnUse" gradientTransform="translate(12 12) scale(12)">
<stop stop-color="#E7816B" stop-opacity="0.01"/>
<stop offset="0.999287" stop-color="#E7816B"/>
</radialGradient>
</defs>
</svg>
